<svg id="Herstelling_logo" data-name="Herstelling logo" xmlns="http://www.w3.org/2000/svg" width="153.681" height="153" viewBox="0 0 153.681 153">
  <g id="Group_25" data-name="Group 25" transform="translate(0 0.003)">
    <g id="Group_24" data-name="Group 24" transform="translate(0 0)">
      <path id="Path_55" data-name="Path 55" d="M-412.311,128.418l-83.735-81.091a9.631,9.631,0,0,1-2.76-8.421c1.85-11.622-1.325-21.9-9.169-29.7A30.457,30.457,0,0,0-529.708.018a31.754,31.754,0,0,0-19.338,7.159,3.185,3.185,0,0,0-1.185,2.7,3.2,3.2,0,0,0,1.55,2.512l19.568,11.685A17.332,17.332,0,0,1-538.5,37.816l-17.513-10.461a3.466,3.466,0,0,0-3.31,0,3.194,3.194,0,0,0-1.665,2.614,31.507,31.507,0,0,0,8.657,23.779,32.215,32.215,0,0,0,23.3,10.015,28.108,28.108,0,0,0,6.551-1.192,9.615,9.615,0,0,1,9.355,2.563l81.084,82.984a16.7,16.7,0,0,0,11.865,4.9,12.793,12.793,0,0,0,12.807-12.756A16.579,16.579,0,0,0-412.311,128.418Z" transform="translate(561.047 -0.016)" fill="#705e15"/>
    </g>
  </g>
  <g id="Group_27" data-name="Group 27" transform="translate(83.231 0)">
    <g id="Group_26" data-name="Group 26">
      <path id="Path_56" data-name="Path 56" d="M-214.245,7.35l-6.4-6.4a3.194,3.194,0,0,0-3.695-.6l-25.613,12.806a3.207,3.207,0,0,0-1.767,2.862v8.279l-32.029,32.042,14.318,13.927,31.843-31.837h8.279a3.207,3.207,0,0,0,2.862-1.767l12.807-25.613A3.186,3.186,0,0,0-214.245,7.35Z" transform="translate(283.752 -0.007)" fill="#705e15"/>
    </g>
  </g>
  <g id="Group_29" data-name="Group 29" transform="translate(0.001 79.74)">
    <g id="Group_28" data-name="Group 28">
      <path id="Path_57" data-name="Path 57" d="M-507.46,267.927a9.913,9.913,0,0,1-1.806.173,3.2,3.2,0,0,0-2.145.826l-44.17,39.854a18.754,18.754,0,0,0-5.462,13.2,18.732,18.732,0,0,0,5.417,13.133l.6.621a18.776,18.776,0,0,0,13.2,5.456,18.588,18.588,0,0,0,13.261-5.545s39.527-42.665,40.206-43.395a3.187,3.187,0,0,0,.961-2.28,9.716,9.716,0,0,1,.128-1.293Z" transform="translate(561.043 -267.927)" fill="#705e15"/>
    </g>
  </g>
</svg>
