<svg xmlns="http://www.w3.org/2000/svg" width="160.12" height="153" viewBox="0 0 160.12 153">
  <g id="home_logo" data-name="home logo" transform="translate(0 -12.676)">
    <g id="onderhoud_logo" data-name="onderhoud logo" transform="translate(0 12.676)">
      <g id="Group_31" data-name="Group 31">
        <path id="Path_59" data-name="Path 59" d="M157.431,80.65,143.9,68.26V27.174A4.721,4.721,0,0,0,139.2,22.44h-32.56a4.721,4.721,0,0,0-4.709,4.734v2.633L85.59,14.842a8.142,8.142,0,0,0-11.06,0L2.689,80.651A8.26,8.26,0,0,0,8.22,95.006H19.694v65.935a4.721,4.721,0,0,0,4.709,4.734H63.78a4.721,4.721,0,0,0,4.709-4.734V120.908H91.631v40.034a4.721,4.721,0,0,0,4.709,4.734h39.376a4.721,4.721,0,0,0,4.709-4.734V95.007H151.9a8.26,8.26,0,0,0,5.53-14.356Zm-21.715,4.889a4.721,4.721,0,0,0-4.709,4.734v65.935H101.049V116.174a4.722,4.722,0,0,0-4.709-4.734H63.78a4.721,4.721,0,0,0-4.709,4.734v40.034H29.111V90.273A4.721,4.721,0,0,0,24.4,85.539H11.335L80.06,22.584l23.4,21.439a4.706,4.706,0,0,0,7.88-3.5V31.907h23.143V70.35a4.745,4.745,0,0,0,1.537,3.5l12.761,11.689Z" transform="translate(0 -12.676)" fill="#705e16"/>
      </g>
      <g id="Group_32" data-name="Group 32" transform="translate(52.888 38.956)">
        <g id="Group_25" data-name="Group 25" transform="translate(0 0.001)">
          <g id="Group_24" data-name="Group 24" transform="translate(0 0)">
            <path id="Path_55" data-name="Path 55" d="M-508.451,45.422l-29.611-28.676a3.406,3.406,0,0,1-.976-2.978,11.648,11.648,0,0,0-3.242-10.5A10.771,10.771,0,0,0-549.965.017,11.229,11.229,0,0,0-556.8,2.548a1.126,1.126,0,0,0-.419.954,1.131,1.131,0,0,0,.548.888l6.92,4.132a6.129,6.129,0,0,1-3.32,4.86l-6.193-3.7a1.226,1.226,0,0,0-1.171,0,1.13,1.13,0,0,0-.589.924,11.142,11.142,0,0,0,3.061,8.409,11.392,11.392,0,0,0,8.24,3.542,9.94,9.94,0,0,0,2.316-.422,3.4,3.4,0,0,1,3.308.906l28.673,29.345a5.907,5.907,0,0,0,4.2,1.731,4.524,4.524,0,0,0,4.529-4.511A5.863,5.863,0,0,0-508.451,45.422Z" transform="translate(561.047 -0.016)" fill="#705e15"/>
          </g>
        </g>
        <g id="Group_27" data-name="Group 27" transform="translate(29.432 0)">
          <g id="Group_26" data-name="Group 26">
            <path id="Path_56" data-name="Path 56" d="M-259.173,2.6-261.437.339a1.129,1.129,0,0,0-1.306-.213L-271.8,4.655a1.134,1.134,0,0,0-.625,1.012V8.595l-11.326,11.331,5.063,4.925,11.261-11.258h2.928a1.134,1.134,0,0,0,1.012-.625l4.529-9.057A1.126,1.126,0,0,0-259.173,2.6Z" transform="translate(283.752 -0.007)" fill="#705e15"/>
          </g>
        </g>
        <g id="Group_29" data-name="Group 29" transform="translate(0 28.198)">
          <g id="Group_28" data-name="Group 28">
            <path id="Path_57" data-name="Path 57" d="M-542.095,267.927a3.5,3.5,0,0,1-.638.061,1.131,1.131,0,0,0-.759.292l-15.62,14.093a6.632,6.632,0,0,0-1.932,4.667,6.624,6.624,0,0,0,1.916,4.644l.211.22a6.64,6.64,0,0,0,4.667,1.929,6.573,6.573,0,0,0,4.689-1.961l14.218-15.345a1.127,1.127,0,0,0,.34-.806,3.436,3.436,0,0,1,.045-.457Z" transform="translate(561.043 -267.927)" fill="#705e15"/>
          </g>
        </g>
      </g>
    </g>
  </g>
</svg>
