<svg xmlns="http://www.w3.org/2000/svg" width="260" height="153" viewBox="0 0 260 153">
  <path id="truck_logo" data-name="truck logo" d="M243.381,168.789c-.816-.173-1.587-1.345-2.272-1.525-7.769-2.038-11.315-3.156-13.937-8.263l-9.931-20.287c-3.192-6.217-11.433-11.275-18.372-11.275H181.188V104.013a7.6,7.6,0,0,0-7.562-7.629l-123.147.125c-4.057,0-7.117,3.253-7.117,7.568V111H11.815a11.922,11.922,0,0,0,0,23.843H43.361v11.426H22.707a11.922,11.922,0,0,0,0,23.842H43.361v11.426H33.6a11.922,11.922,0,0,0,0,23.842h9.763V217.33a7.6,7.6,0,0,0,7.561,7.629h12.81a28.28,28.28,0,0,0,56.032,0h51.842c.269,0,.545-.018.821-.036a28.28,28.28,0,0,0,56.037.036h18.4A13.21,13.21,0,0,0,260,211.706V189.218C260,171.3,250,170.19,243.381,168.789Zm-42.934,41.642a10.386,10.386,0,1,1-10.293,10.386A10.353,10.353,0,0,1,200.447,210.431Zm-19.259-44.266V138.5H194.7c5.193,0,11.6,3.932,13.977,8.561l8.837,18.053q.281.548.583,1.047H181.188Zm-79.144,54.651a10.295,10.295,0,1,1-10.3-10.386A10.353,10.353,0,0,1,102.044,220.816Z" transform="translate(0 -96.384)" fill="#705e16"/>
</svg>
